<svg xmlns="http://www.w3.org/2000/svg" viewBox="0 0 961.8 229.1"><defs><style>      .cls-1 {        fill: #fff;      }      .cls-2 {        fill: #ffd301;      }      .cls-3 {        fill: #0060e1;      }    </style></defs><g><g id="b"><g id="c"><path class="cls-2" d="M110.7,7.8c-46,0-85.5,28.1-102.2,68.1,4.9,14.8,14.9,27,28.6,34.6.5,0,.9.2,1.3.6,1.9,1.5,3.6,3.2,4.5,5.5,1.3,3.3,3.2,6.3,5.5,9,.8.9,1.8,1.9,2.3,3,1.1,2.7,3.7,2.9,5.6,2.6,2.4-.4,4.8.8,7.1-.2.3-.1.8,0,1,.2.8.6,1.7.4,2.6.4.7,0,.8-.4.8-1,0-1.2-.4-2.1-1.7-2.5-.8-.3-1.6-.7-2.3-1.2-.8-.5-1.1-1.2-.5-2.2.5-.9.4-2.1,1.3-2.9-1-1,.1-2.2-.2-3.3-.2-.7,0-1.1.7-1.2,1.6-.3,2.4-1.4,2.9-2.8.3-.8,1.2-1.4.9-2.3-.3-1,.1-1.7.6-2.4.4-.5,1-.9,1.5-1.3-.4-.4-.9,0-1.2-.6,1.2-.7,2.4-1.4,3.9-1.1.4,0,.9.2,1.2-.2.4-.4.7-.3,1.1,0,3.1,1.8,6.8,2.2,9.3,5.1.2-.6-.5-1,0-1.5.9,1.7,2.5,2.9,3.4,4.6.6-.5,0-1.1.4-1.5.7.8.7,1.6.2,2.5-.5.8-.7,1.6.4,2.1.2,0,.3.2.2.4-.3.6-.3.6,0,1,.8,1.1,1.3,2.2,1,3.6,0,.5,0,1.2-.9.8,0,1.5-1.1,2.4-1.7,3.7-.4.8-1.5.3-1.7,1.3-.1.6-.3.6-1,.2,0,0-.3,0-.4,0-1.3.9-2.8,1.4-4.2,2.2-.6.3-.5.6,0,.9,4.2,1.9,8,4.4,12.4,5.9.6.2,1.3.4,1,1.3-.2.7.3.9.7,1.2,1.2.8,2.1,1.8,3,2.9,2.2,2.7,3.8,5.8,5.2,9,.3.7.7,1.4,1.2,1.9,0-.1.2-.3.2-.6,0-.3.6,0,.9.1,1.4.7,2.3,1.9,2.5,3.5,0,.1,0,.2,0,.3.4.5.9,1.1,1.3,1.6.1.1.3.3.3.6.2,0,.3.1.5.2,1.9.7,3.8,1.3,5.8,1.7,1,.2,1.8,0,2.4-.8,1.3-1.8,2.8-3.4,3.9-5.4,1.2-2.3,2.4-4.4,4.7-5.9.5-.3.9-.8.6-1.6-.8-2.6-2-3.6-4.6-3.9-.5,0-1-.1-1.4-.3-.9-.3-1.5-.9-1.2-2,.5-1.9.3-3.7-.3-5.6-.2-.6,0-1,.5-1.2,1.6-.7,1.7-2,2.1-3.5.4-1.9.3-4.1,2.5-5.2.2,0,.2-.3.3-.6.7-2.6,2.1-3.4,4.9-2.6-.8.3-1.7,0-2.8.5,1.7-.3,3.1-.4,4.4-.1,2,.5,3.9.7,5.9.7,2.9,0,5.3,1.3,6.9,3.8.6,1,1.5,1.2,2.5,1.3,2.1.2,4.1.5,5.1,2.7.2.4.6.7.7,1.2-.4,0-.6-.3-.8-.6-1.6-1.6-3.5-1.7-5.6-1.4-.4,0-1.3.2-.6,1,1.5,1.7,4.9,3.7,7.3,2.1.6-.4,1.3-.6,2.2-.1-1.5.4-2.6,1.4-4,1.6,2.5-.2,4.8-2.1,7.6-.9-1.1.4-2.3-.1-3.4.7,1.7.2,3.3-.1,4.8.6,1.5.7,2.5,2,3.9,2.8,1.9,1,2.7,2.3,2.7,3.4-2-2.3-2.9-2.9-4.5-2.9.4.8,1.2,1.4,1.3,2.4,0,.7-.2,1.4-.8,1.7-.7.4-.9-.4-1.2-.9-.4-.5-.7-1-1.2-1.4-.8-.6-1.6-1-2.8-.5.8.4,1.5.8,2.1,1.1.6.4,1.3.9,1.5,1.7-.6.1-.9-.3-1.2-.5-.6-.4-1.4-.6-2.1-.7-.7,0-1.6,0-1.8.7-.2.7.8.7,1.3.9,1.1.5,2.4.8,3.3,1.9-.9-.2-1.7-.5-2.6-.8-.5-.2-.9-.3-1.4,0-.5.4-.2.9,0,1.3.3,1.1.3,2-.6,2.9-.3-.4,0-.8,0-1.1.1-1-.2-1.9-.9-2.6-.7-.6-1.2.3-1.9.4-.6,0-.7.4-.2.9,1,1.1,1,2.3.1,3.3.3-1.6-.1-2.7-1.6-3.7.5.8,1.2,1.2,1.2,2.5-1.6-2.5-3.8-2.3-6-2,2,3,1.8,2.9,1.5,3.6-1.8-1-3.3-2.1-5.3-2.9-2.3-.9-4.9-1.1-7-2.4-.3-.2-.7-.5-.9,0-.2.4.3.6.6.7,1.5.6,2.8,1.4,4.1,2.6,1.2,1.1,2.3,2.5,3.9,3,3.3,1,6.5,2.5,9.9,3.4s6.5,2.4,9.3,4.4c2.4,1.7,4.9,2.9,7.8,2.8.9,0,1.7.2,2.5.8.3.2.4.4.4.8-.1.4-.4.3-.7.3-.2,0-.4-.1-.7.1,1.5,1.1,1,2.5.5,3.9-.1.3-.2.6-.3.9,0,1-.6,1.1-1.4,1.1-2.1-.2-3.9-1-5.2-2.7-.8-1-1.7-1.9-2.8-2.5-6.3-3.4-13.2-5-20.1-6.6-.6-.1-1,0-1.2.6-.7,3.2-.6,6.3,2.1,8.7,4.6,4,9.5,7.4,15.6,8.6,4.1.8,8,2.1,11,5.3.6.7,1.6,1.2,2.6,1.2,1.1,0,1.2.6,1.2,1.4-.2,2.2-.9,4.2-3.3,4.9-.6.2-1.2.6-1.7.9-.8.4-1.3,1.1-1.4,2-.2,1.8-1.4,2.9-2.9,3.6s-2.8,1.8-4.1,2.8c-.7.6-.7,1-.3,1.8.8,1.5,2,2.5,3.7,2.8,4,.9,7.4,2.8,10.2,5.7,28.1-20.1,46.5-53,46.5-90.2,0-61.1-49.6-110.7-110.7-110.7h0Z"></path><path class="cls-3" d="M51.3,178.9c1.9-1.3,3.8-2.6,5.6-3.9,1.9-1.4,3.7-2.9,5.7-4.2,1.8-1.1.4-3,1.3-4.3,0,0-.2-.2-.3-.4-.2-.3-.4-.6-.5-1-1.8-6.5-3-13.1-2.4-19.9.2-2.2-1.2-3.9-3.4-4.2-.5,0-1.1-.1-1.6-.1-.8,0-1.4-.4-1.4-1.2-.2-1.8-1.4-2.4-2.9-3-2.4-.9-4.6-2-6-4.4-1.9-3.1-3.8-6.1-5.2-9.4-.5-1.1-1-2.2-2.2-2.8-2.1-1.1-3.2-4.1-2.4-6.4,0,0,0,0,0,0,.3-.8.2-1.4,0-2,0,0,0,0,0,0,0,0,0,0,0,0-13.1-7.5-23-19.2-28.1-33.3,0,0,0,0,0,.1-.4-1.1-.8-2.1-1.1-3.2C1.4,59.1,3,41.9,10.9,26.9c.2-.4,0-1-.4-1.2-.4-.2-1,0-1.2.4C1.2,41.5-.5,59.2,4.6,75.8c.6,1.8,1.2,3.5,1.9,5.2C2.3,92.8,0,105.3,0,118.5c0,34.6,15.9,65.5,40.8,85.8,0,0,.2,0,.3,0,1.4,0,2.5-.5,3.1-1.8.8-1.6,1.3-3.4,1.4-5.2,0-1.7.5-3.3.9-5,.7-3,1.7-5.9,2.2-9,.3-1.9,1.1-3.4,2.6-4.4h0Z"></path><path class="cls-3" d="M159.4,209.4c-1.7-.6-3.3-1.4-4.6-2.7-.7-.7-1.5-1.4-2.1-2.1-.5-.6-.9-.6-1.6-.3-1.4.6-2.7.8-4.1,0-.9-.5-1.7-.3-2.3.5-.8,1-1.8,1.2-3,.8-1.6-.5-3.3-.7-5-.4-1.4.2-2.6,0-3.4-1.4-.7-1.1-1.6-1.1-2.6-.5-1.5.9-2,2-1.8,3.7.2,1.3.3,2.6.4,3.9.2,3.6-1,6.9-2.4,10.1-1,2.3-2,4.7-2.4,7.1,15.8-1.9,30.6-7.2,43.6-15.1-2.7-1.5-5.6-2.8-8.5-3.8h0Z"></path><path class="cls-3" d="M124.9,192.4c2.8-4.3,3.8-8.9,2.9-13.9-.9-4.9-2.2-9.8-2.7-14.8,0-.2,0-.5-.2-.6-.3-.1-.4.2-.6.4-.8.9-1.7,1.9-2.5,2.8-1.3,1.4-2.8,1.9-4.7,1.4-2.9-.8-5.5-2-8-3.6-.1.2-.2.4-.4.6-.3.3-.2,1.1-.8,1.1-.6,0-.8-.6-1-1-.2-.4-.3-.8-.5-1.1-.6-1.1-1.1-2.2-2.5-2.7,0,.9.2,1.7.2,2.5,0,.4,0,1-.6,1.1-.6.1-.8-.3-1-.7-.9-1.8-1.5-3.7-1.7-5.7,0-.8-.2-1.5-.6-2.2-2.1-3.7-5-6.6-8.1-9.3-.8-.7-1.2-.7-1.7.4-.9,1.9-1.5,2.1-3.4,1.2-1-.5-1.9-1-2.9-1.4-.9-.4-1.3,0-1.3.9,0,1-.1,1.9-.4,2.8-.9,3.7-.4,7.2,1.8,10.4.6.9,1.2,1.7,1.9,2.5.4.5.7.9,0,1.3-.8.4-.8,1.1-.5,1.7,1,2.5,1.2,5.1.7,7.8-.2,1.1-.4,2.2,1,2.9.3.2.6.7.8,1.1.6,2.2,2.1,3.8,3.4,5.6.8,1,1.7,1.7,2.8,2.3,3.5,1.6,7.1,3.2,10,5.7.8.7,1.8,1.5,2.9,1.8,1.5.4,1.9,1.9,3,2.6.1,0,.2.4.1.5-.7,1.2.3,1.4,1,1.8,1,.6,2.1.8,3.3.6,2.4-.4,3.7.9,3.5,3.4,0,.5,0,1.1-.3,1.6-.5,1.2-.4,2.5.2,3.6,1.5,2.7.8,5.6,1.1,8.4,0,.6-.2,1.3-1,1.4-.6,0-1.1,0-1.4-.7-.8-2-2.1-3.7-3.1-5.5-2-3.6-4.9-6.1-8.3-8.2-.8-.5-1.5-1-2.5-.4-.5.3-.9,0-1.2-.3-2.6-2.3-5.8-3.3-9-4.3-3.9-1.2-7.7-2.5-10.7-5.4-2.4-2.4-5.2-4.4-7.5-7-.4-.5-.9-1-1.7-.6-2.8,1.4-5.8,2.1-8.7,3.2-1.3.5-2.3,1.3-2.5,2.6-.5,2.8-2,5.1-3.4,7.4-.4.6-.7,1.2-.7,2,.2,2.2-2,4.4-4.2,4.2-1-.1-1.6.3-2.2,1-1,1.4-1.9,2.9-2.6,4.5,17.8,12.3,39.4,19.5,62.7,19.5s2.6,0,3.8,0c.4-.2.8-.5,1.2-.7,1.8-1.1,2.9-2.7,3.4-4.6,1.2-4.4,1.7-9,1.9-13.6.1-2.6-.5-5-1-7.5-.3-1.7,0-3.2,1.1-4.6,1.4-1.8,2.6-3.7,3.9-5.6h0Z"></path><path class="cls-2" d="M3.5,21.8h10.4c.6.1,1.1.5,1.3,1.1l3.1,9.9c.4,1.3,2.2,1.3,2.7,0l3.3-9.8c.2-.6.7-1,1.4-1h10.4c1.4.2,2-1.6.9-2.4l-8.3-6.2c-.5-.4-.7-1-.5-1.6l3.3-9.8c.4-1.3-1-2.4-2.1-1.6l-8.5,6c-.5.3-1.2.3-1.7,0L10.8.3c-1.1-.8-2.6.2-2.2,1.5l3.1,9.9c.2.6,0,1.2-.5,1.6l-8.5,6c-1.1.8-.6,2.5.8,2.6h0Z"></path><path class="cls-3" d="M238.7,121c0-23.9,22.2-43.5,47.5-43.5s45.7,17.7,45.7,43.9-21.9,43.1-47.4,43.1-45.8-17.3-45.8-43.5h0ZM308.1,121.2c0-28.3-7.7-42-23.1-42s-22.8,11.6-22.8,41.6,7.7,42.2,23.8,42.2,22.2-11.6,22.2-41.8h0Z"></path><path class="cls-3" d="M338.5,162.2h1.6c4.2-.4,5.6-.7,5.6-2.3v-37.1c0-8.3-.9-9.4-5.5-10.6l-3.1-.7v-.5c.1,0,28.1-7.7,28.1-7.7l-.4,21.2h.3c4.2-14.4,9.8-21.5,18.3-21.5s10.6,3.6,10.6,10.5-3.9,9.1-9,9.1-9.1-4.7-10.5-9.1c-4,.3-6.7,5.4-9.7,17.2v29.1c0,1.1,1.2,1.8,7.4,2.1h1.8c0,.1.4.9.4.9h-36.3l.4-.8h0Z"></path><path class="cls-3" d="M394.8,196.2h2.4c4-.4,5.6-.7,5.6-2.2v-71.2c0-8.3-.8-9.4-5.5-10.6l-3.1-.7v-.5c.1,0,27.8-7.7,27.8-7.7l-.4,12.4.5.4c5-6.6,12.9-12.5,21.2-12.5,13.3,0,24,12.4,24,28.9s-18.3,32.4-33.2,32.4-9.4-.9-12-2h-.4v31.4c0,.9.7,1.6,6.7,1.8h4.8c0,.1.4.9.4.9h-39.5l.4-.8h0ZM446.9,137.4c0-13.7-5.5-23.8-14.6-23.8s-7.5,2-10.3,4.3v33.7c3.8,7,9.7,12,13.6,12,7.4,0,11.4-12,11.4-26.2h0Z"></path><path class="cls-3" d="M471.8,162.2h1.5c4.3-.4,5.8-.7,5.8-2.3v-68.6c0-8.1-.7-9.1-5.4-10.3l-3.1-.8v-.5c.1,0,27.8-6.7,27.8-6.7v42.6c6.3-5.5,14.8-12.4,23.4-12.4s7.8,1.6,10.9,4.7c3.1,3.2,4.3,9.7,4.3,16.1v36.1c0,.8.5,1.2,7,2h1.2c0,.1.4.9.4.9h-34.7l.4-.8h2.4c4.7-.4,4.3-1.2,4.3-2.3v-34.4c0-8.5-4.2-11.2-10.2-11.2s-7.1,1.3-9.7,2.8v43c0,1.1.5,1.5,5.2,1.9h1.9c0,.1.4.9.4.9h-34.2l.4-.8h0Z"></path><path class="cls-3" d="M581.8,151.6l-.3-.3c-6.6,7.7-12.5,13-19.8,13s-13.8-6.3-13.8-12.6c0-10.2,8.7-16.4,34.1-23.2v-5c.5-9.5-4.4-16.8-13.4-16.8s-6.6,1.2-6.6,2.8,4.6,5.1,4.6,8.6-3.9,8.1-9.1,8.1-8.6-2.4-8.6-7.2c0-10.2,19.6-15.8,31.2-15.8,16.5,0,21.6,6.7,21.2,20.4l-1.1,24.4c-.3,5.4,2.3,7.8,5.2,7.8s4.2-2.4,5.6-4.6l.9.4c-3.6,4.4-10.1,12.9-17.9,12.9s-11.2-5-12.4-12.9h0ZM581.2,150l.9-20c-11.5,3.1-15.7,7.5-15.7,14.6s2.5,9.3,7.7,9.3,5.1-1.8,7.1-3.9h0Z"></path><path class="cls-3" d="M613.5,162.2h1.6c4.2-.4,5.6-.7,5.6-2.3v-37.1c0-8.3-.9-9.4-5.5-10.6l-3.1-.7v-.5c.1,0,28.1-7.7,28.1-7.7l-.4,12.1h.1c6.3-5.5,14.9-12.4,23.6-12.4s7.7,1.8,10.8,4.7c3.1,3.2,4.3,9.7,4.3,16.1v36.1c0,.8.7,1.2,7,2h1.2c0,.1.4.9.4.9h-34.8l.4-.8h2.4c4.7-.4,4.4-1.2,4.4-2.3v-34.1c0-8.7-4.4-11.4-10.3-11.4s-7,1.3-9.5,2.8v43c0,1.1.5,1.5,5.2,1.9h2c0,.1.3.9.3.9h-34.2l.4-.8h0Z"></path><path class="cls-3" d="M690.7,121.9c0-23.6,17.3-44.6,51-44.6s15.7,2.2,20.2,4.6l9.3-2,1.2,27.8h-.8l-14.6-25.4c-2.3-1.5-8.6-3.2-15.2-3.2-17.5,0-27.5,17.5-27.5,42.3s11.5,41.5,26.3,41.5,23.2-7.2,29-19.9l5-10.2h.8l-4.3,26.1-4.4.7c-4.8,2-17.6,4.8-26.5,4.8-31,0-49.4-19.6-49.4-42.4h0Z"></path><path class="cls-3" d="M815.8,151.6l-.3-.3c-6.6,7.7-12.5,13-19.8,13s-13.8-6.3-13.8-12.6c0-10.2,8.7-16.4,34.1-23.2v-5c.5-9.5-4.4-16.8-13.4-16.8s-6.6,1.2-6.6,2.8,4.6,5.1,4.6,8.6-3.9,8.1-9.1,8.1-8.6-2.4-8.6-7.2c0-10.2,19.6-15.8,31.2-15.8,16.5,0,21.6,6.7,21.2,20.4l-1.1,24.4c-.3,5.4,2.3,7.8,5.2,7.8s4.2-2.4,5.6-4.6l.9.4c-3.6,4.4-10.1,12.9-17.9,12.9s-11.2-5-12.4-12.9h0ZM815.2,150l.9-20c-11.5,3.1-15.7,7.5-15.7,14.6s2.5,9.3,7.7,9.3,5.1-1.8,7.1-3.9h0Z"></path><path class="cls-3" d="M847.5,162.2h1.6c4.2-.4,5.6-.7,5.6-2.3v-37.1c0-8.3-.9-9.4-5.5-10.6l-3.1-.7v-.5c.1,0,28.1-7.7,28.1-7.7l-.4,21.2h.3c4.2-14.4,9.8-21.5,18.3-21.5s10.6,3.6,10.6,10.5-3.9,9.1-9,9.1-9.1-4.7-10.5-9.1c-4,.3-6.7,5.4-9.7,17.2v29.1c0,1.1,1.2,1.8,7.4,2.1h1.8c0,.1.4.9.4.9h-36.3l.4-.8h0Z"></path><path class="cls-3" d="M904.3,135.2c0-18.8,14.8-32.4,32.9-32.4s24,11.2,24,19.5-.1,1.8-.3,2.6c0,0-28.8-.4-36.3-.7-.3,1.6-.1,4.2-.1,5.8,0,14.2,7.7,24.6,20.2,24.6s13-3.5,16.2-10.5l.8.4c-5.1,13.3-14.1,20.7-28.6,20.7s-28.9-13-28.9-30h0ZM943.7,122.7c0-8.1-1.5-18-8.3-18s-9.4,6.3-10.5,18h18.8Z"></path><path class="cls-1" d="M479,191.4v3.3h-15.8v-21.1h15.4v3.3h-11.5v5.5h10.2v3.2h-10.2v5.8h11.9,0Z"></path><path class="cls-1" d="M503.1,173.7l-9.2,21.1h-3.9l-9.2-21.1h4.2l7,16.3,7.1-16.3h3.9,0Z"></path><path class="cls-1" d="M521.9,191.4v3.3h-15.8v-21.1h15.4v3.3h-11.5v5.5h10.2v3.2h-10.2v5.8h11.9,0Z"></path><path class="cls-1" d="M540.8,194.7l-4.3-6.2c-.2,0-.5,0-.8,0h-4.8v6.1h-3.9v-21.1h8.7c1.8,0,3.4.3,4.8.9,1.4.6,2.4,1.5,3.1,2.6.7,1.1,1.1,2.5,1.1,4s-.4,2.9-1.2,4.1c-.8,1.1-1.9,2-3.3,2.6l4.8,6.9h-4.2,0ZM539.4,178.1c-.9-.7-2.2-1.1-3.9-1.1h-4.6v8.4h4.6c1.7,0,3-.4,3.9-1.1.9-.7,1.3-1.8,1.3-3.1s-.4-2.4-1.3-3.1h0Z"></path><path class="cls-1" d="M558.6,187.3v7.4h-3.9v-7.4l-8.3-13.7h4.2l6.2,10.3,6.2-10.3h3.8l-8.2,13.6h0Z"></path><path class="cls-1" d="M583.2,193.6c-1.7-.9-3.1-2.2-4-3.9-1-1.6-1.5-3.5-1.5-5.6s.5-3.9,1.5-5.6c1-1.6,2.3-2.9,4-3.9s3.6-1.4,5.8-1.4,3.3.3,4.7.9c1.4.6,2.6,1.5,3.6,2.6l-2.5,2.4c-1.5-1.6-3.4-2.5-5.6-2.5s-2.7.3-3.9.9c-1.1.6-2,1.5-2.7,2.6-.6,1.1-1,2.4-1,3.8s.3,2.7,1,3.8c.6,1.1,1.5,2,2.7,2.6,1.1.6,2.4.9,3.9.9,2.2,0,4.1-.8,5.6-2.5l2.5,2.4c-1,1.1-2.2,2-3.6,2.6-1.4.6-3,.9-4.7.9s-4-.5-5.8-1.4h0Z"></path><path class="cls-1" d="M620.6,173.7v21.1h-3.9v-9h-10.9v9h-3.9v-21.1h3.9v8.7h10.9v-8.7h3.9Z"></path><path class="cls-1" d="M627,173.7h3.9v21.1h-3.9v-21.1Z"></path><path class="cls-1" d="M637.4,173.7h3.9v17.8h11v3.3h-14.9v-21.1Z"></path><path class="cls-1" d="M656.2,173.7h9.2c2.2,0,4.2.4,6,1.3,1.8.9,3.1,2.1,4.1,3.7,1,1.6,1.5,3.4,1.5,5.5s-.5,3.9-1.5,5.5c-1,1.6-2.3,2.8-4.1,3.7s-3.7,1.3-6,1.3h-9.2v-21.1h0ZM665.2,191.4c1.5,0,2.9-.3,4.1-.9,1.2-.6,2.1-1.4,2.7-2.5s1-2.4,1-3.8-.3-2.7-1-3.8c-.6-1.1-1.5-1.9-2.7-2.5-1.2-.6-2.5-.9-4.1-.9h-5.1v14.5h5.1Z"></path><path class="cls-1" d="M709.6,173.7v21.1h-3.2l-11.6-14.3v14.3h-3.9v-21.1h3.2l11.6,14.3v-14.3h3.9Z"></path><path class="cls-1" d="M731.8,191.4v3.3h-15.8v-21.1h15.4v3.3h-11.5v5.5h10.2v3.2h-10.2v5.8h11.9,0Z"></path><path class="cls-1" d="M752.8,191.4v3.3h-15.8v-21.1h15.4v3.3h-11.5v5.5h10.2v3.2h-10.2v5.8h11.9,0Z"></path><path class="cls-1" d="M757.9,173.7h9.2c2.2,0,4.2.4,6,1.3,1.8.9,3.1,2.1,4.1,3.7,1,1.6,1.5,3.4,1.5,5.5s-.5,3.9-1.5,5.5c-1,1.6-2.3,2.8-4.1,3.7s-3.7,1.3-6,1.3h-9.2v-21.1h0ZM766.9,191.4c1.5,0,2.9-.3,4.1-.9,1.2-.6,2.1-1.4,2.7-2.5s1-2.4,1-3.8-.3-2.7-1-3.8c-.6-1.1-1.5-1.9-2.7-2.5-1.2-.6-2.5-.9-4.1-.9h-5.1v14.5h5.1Z"></path><path class="cls-1" d="M785.3,194.4c-1.5-.5-2.7-1.1-3.6-1.8l1.4-3c.9.7,1.9,1.2,3.2,1.7,1.2.4,2.5.6,3.8.6s2.7-.2,3.5-.8,1.2-1.2,1.2-2-.2-1.1-.7-1.5c-.4-.4-1-.7-1.6-.9-.7-.2-1.6-.5-2.7-.8-1.6-.4-2.9-.8-3.9-1.1-1-.4-1.8-1-2.6-1.8s-1.1-1.9-1.1-3.3.3-2.2,1-3.2,1.6-1.7,2.9-2.3c1.3-.6,2.8-.8,4.7-.8s2.5.2,3.8.5c1.2.3,2.3.8,3.2,1.4l-1.2,3c-.9-.5-1.9-.9-2.9-1.2s-2-.4-2.9-.4c-1.5,0-2.7.3-3.5.8s-1.1,1.2-1.1,2.1.2,1.1.7,1.5c.4.4,1,.7,1.6.9.7.2,1.6.5,2.7.8,1.6.4,2.8.7,3.8,1.1s1.9,1,2.6,1.8c.7.8,1.1,1.9,1.1,3.2s-.3,2.2-1,3.2-1.6,1.7-2.9,2.3-2.8.8-4.7.8-3.2-.2-4.7-.7h0Z"></path><path class="cls-1" d="M825.9,189.9h-10.5l-2.1,4.9h-4l9.5-21.1h3.8l9.5,21.1h-4.1l-2.1-4.9h0ZM824.6,186.8l-4-9.2-4,9.2h7.9Z"></path><path class="cls-1" d="M848.5,176.9v6.4h10.2v3.3h-10.2v8.1h-3.9v-21.1h15.4v3.3h-11.5Z"></path><path class="cls-1" d="M877.3,189.9h-10.5l-2.1,4.9h-4l9.5-21.1h3.8l9.5,21.1h-4.1l-2.1-4.9h0ZM876,186.8l-4-9.2-4,9.2h7.9Z"></path><path class="cls-1" d="M906.3,194.7v-14s-7,11.6-7,11.6h-1.8l-6.9-11.4v13.8h-3.7v-21.1h3.2l8.4,14,8.2-14h3.2v21.1s-3.7,0-3.7,0h0Z"></path><path class="cls-1" d="M916.5,173.7h3.9v21.1h-3.9v-21.1Z"></path><path class="cls-1" d="M926.8,173.7h3.9v17.8h11v3.3h-14.9v-21.1Z"></path><path class="cls-1" d="M952.5,187.3v7.4h-3.9v-7.4l-8.3-13.7h4.2l6.2,10.3,6.2-10.3h3.8l-8.2,13.6h0Z"></path></g></g></g></svg>